Coordinates
version=1
nRows=11
nColumns=36
inDegrees=yes

Units are S.I. units (second, meters, Newtons, ...)
If the header above contains a line with 'inDegrees', this indicates whether rotational values are in degrees (yes) or radians (no).

endheader
time	pelvis_tilt	pelvis_list	pelvis_rotation	pelvis_tx	pelvis_ty	pelvis_tz	hip_flexion_r	hip_adduction_r	hip_rotation_r	knee_angle_r	knee_angle_r_beta	ankle_angle_r	subtalar_angle_r	mtp_angle_r	hip_flexion_l	hip_adduction_l	hip_rotation_l	knee_angle_l	knee_angle_l_beta	ankle_angle_l	subtalar_angle_l	mtp_angle_l	lumbar_extension	lumbar_bending	lumbar_rotation	arm_flex_r	arm_add_r	arm_rot_r	elbow_flex_r	pro_sup_r	arm_flex_l	arm_add_l	arm_rot_l	elbow_flex_l	pro_sup_l
     14.91666670	      3.83286711	     -0.20020008	     -2.67858419	      0.57965436	      1.03448503	      0.70346823	      8.43815859	     -1.24313556	      2.80347810	     58.89531584	      1.02791718	    -10.47082035	    -12.34581419	     -7.49999987	     10.54936195	      0.94079719	     -0.98944867	     20.95469940	      0.36572850	      8.05582237	     -4.35397787	     -7.49999987	    -20.31822966	     -2.68847416	      5.55543143	      2.47427598	    -17.99887959	      2.68489258	     36.29279566	     84.54803979	      9.89387985	    -12.65529328	     20.92612259	     22.68486081	     90.38638160
     14.93333330	      3.93774657	     -0.13775709	     -2.81178094	      0.58336192	      1.03406117	      0.69872191	     10.20404378	     -1.21905267	      2.89070056	     59.80582788	      1.04380861	     -6.57787774	    -12.54610379	     -7.49999987	      8.91478346	      1.17618179	     -1.24553722	     20.40642032	      0.35615922	      8.63131443	     -4.39833745	     -7.49999987	    -20.26977483	     -2.75159341	      5.23869759	      1.45116439	    -17.60392027	      2.58365082	     35.67874488	     84.63418134	     10.52813170	    -12.92648403	     21.07166085	     23.21506467	     90.42950322
     14.95000000	      4.08353128	     -0.12056685	     -2.76824913	      0.58522856	      1.03419226	      0.69619394	     11.95017579	     -1.15686530	      3.01650477	     60.21482782	      1.05094700	     -3.12893312	    -12.58858484	     -7.49999987	      7.20750759	      1.38624081	     -1.22563841	     19.77892802	      0.34520742	      9.22506936	     -4.41297503	     -7.49999987	    -20.15203714	     -2.71215652	      4.84319201	      0.54355994	    -17.20356257	      2.41379346	     34.87527111	     84.84617616	     11.33840307	    -13.18247091	     21.47582501	     23.49911139	     90.69753547
     14.96666670	      4.26350025	     -0.11539819	     -2.51542435	      0.58618248	      1.03500678	      0.69449958	     13.85812743	     -1.08829526	      3.21102973	     60.37251627	      1.05369919	     -0.52963753	    -12.70142211	     -7.49999987	      5.44677814	      1.58787740	     -0.95833555	     19.07899484	      0.33299128	      9.84720431	     -4.45825146	     -7.49999987	    -20.01572898	     -2.64141393	      4.92796301	     -0.80960971	    -16.80431579	      1.29444637	     34.24945163	     85.92531177	     13.10419862	    -13.52928749	     25.04201962	     23.06308733	     91.19505056
     14.98333330	      4.52567200	     -0.09791691	     -2.17598931	      0.58696867	      1.03614741	      0.69298693	     15.79412703	     -1.03753085	      3.40026069	     60.01098875	      1.04738934	      1.46383131	    -12.84931462	     -7.49999987	      3.49035867	      1.80068662	     -0.66071543	     18.14935020	      0.31676592	     10.56688894	     -4.40988362	     -7.49999987	    -20.17650748	     -2.47917865	      4.31421661	     -1.79250078	    -16.54739698	      1.09711797	     34.26506076	     84.93151007	     13.87199580	    -13.95860938	     25.09929505	     24.14245271	     89.84833019
     15.00000000	      4.69304230	     -0.21759962	     -1.75110798	      0.58640984	      1.03608805	      0.69246042	     17.65898055	     -0.91701188	      3.19046956	     58.71464524	      1.02476388	      3.23396154	    -12.72065113	     -7.49999987	      1.64475558	      1.86345224	     -0.28170659	     17.22057043	      0.30055565	     11.41639504	     -4.33261139	     -7.49999987	    -20.13212761	     -2.15484943	      3.91095328	     -2.73035066	    -16.31388000	      0.88155640	     33.69603521	     85.25802741	     14.95508804	    -14.08152678	     25.60059728	     24.42494395	     90.06849628
     15.01666670	      4.74640558	     -0.39729813	     -1.34769148	      0.58380633	      1.03408071	      0.69357013	     19.32317494	     -0.74114018	      2.72895674	     56.35687303	      0.98361299	      4.37893507	    -12.82769618	     -7.49999987	     -0.01904313	      1.84398385	      0.12583556	     16.33333472	      0.28507047	     12.16498433	     -4.34685072	     -7.49999987	    -20.04390370	     -1.73873040	      3.52486035	     -3.71579280	    -16.10205793	      0.78000956	     33.30985223	     85.63797709	     16.02025738	    -14.19416392	     25.92499402	     24.80123668	     90.41526601
     15.03333330	      4.66805634	     -0.40920011	     -1.13818555	      0.58032932	      1.03097683	      0.69593444	     20.89323958	     -0.64093007	      2.46513499	     53.38796287	      0.93179573	      5.11726660	    -12.96338572	     -7.49999987	     -1.37494708	      1.92975555	      0.26567851	     15.66518992	      0.27340914	     12.70536216	     -4.44846339	     -7.49999987	    -19.83953406	     -1.66961616	      3.10660326	     -4.55781462	    -15.73311226	      0.81657837	     33.12471539	     85.78390498	     16.96316512	    -14.56938433	     25.95239378	     25.14234288	     90.52171640
     15.05000000	      4.91338119	     -0.67819856	     -0.56906061	      0.57750828	      1.03024603	      0.69674497	     21.62325879	     -0.54467471	      1.67409317	     49.64709535	      0.86650528	      5.47148114	    -12.77431837	     -7.49999987	     -2.94692274	      1.79352049	      1.27257077	     15.06594563	      0.26295036	     12.82055788	     -5.49745109	     -7.49999987	    -20.33593092	     -1.03973794	      2.62211558	     -5.75752889	    -15.63947272	      0.22105585	     33.95697891	     84.65539650	     17.58524118	    -15.23612932	     26.17855080	     27.30816737	     89.00937648
     15.06666670	      5.21800557	     -0.78726575	     -0.40780373	      0.57606118	      1.03064341	      0.69739777	     22.12430595	     -0.43547856	      1.44364231	     45.60911903	      0.79602930	      5.23558117	    -12.77710471	     -7.49999987	     -4.52944944	      1.64049857	      1.09256570	     14.48289177	      0.25277415	     13.76262217	     -4.58402904	     -7.49999987	    -20.95831110	     -1.04811025	      5.59924697	    -10.03809272	    -14.67468772	     -5.72149679	     37.12589775	     87.90741577	     21.76050901	    -14.65296377	     33.11442738	     26.26963900	     88.42069622
     15.08333330	      5.13346206	     -0.83084597	     -0.21977302	      0.57580613	      1.03058744	      0.69746576	     22.77182911	     -0.47294600	      1.14208789	     41.20083234	      0.71909018	      4.72840783	    -12.50228512	     -7.49999987	     -5.73584536	      1.56873943	      1.37062487	     13.70154364	      0.23913705	     14.20880264	     -4.50006884	     -7.49999987	    -20.94728850	     -0.90151129	      5.52776159	    -10.92675330	    -14.26161423	     -6.16408033	     37.39590277	     88.47444551	     22.46084852	    -15.08856879	     32.28462274	     27.48971838	     87.90355299
